<svg width="72" height="57" viewBox="0 0 72 57" fill="none" xmlns="http://www.w3.org/2000/svg">
<path d="M46.3541 0.997884C46.0604 0.991873 45.771 1.06918 45.5194 1.22081C45.2677 1.37244 45.0642 1.59216 44.9323 1.85466L37.7743 16.0977L30.5312 17.1003C30.2879 17.1335 30.0559 17.2235 29.8542 17.3635C29.6525 17.5035 29.4868 17.6895 29.3706 17.9058C29.2544 18.1221 29.1911 18.3629 29.1858 18.6084C29.1806 18.8539 29.2335 19.0971 29.3402 19.3182L31.9227 24.6472C32.0332 24.8739 32.1971 25.0703 32.4003 25.2195C32.6036 25.3688 32.84 25.4664 33.0894 25.504L46.585 27.5639L36.7352 37.0248C36.5537 37.1996 36.4174 37.416 36.338 37.6552C36.2586 37.8944 36.2385 38.1494 36.2795 38.3981L37.2639 44.3955C37.3037 44.6376 37.4002 44.8669 37.5455 45.0646C37.6909 45.2623 37.881 45.4227 38.1002 45.5329C38.3194 45.6431 38.5617 45.6997 38.807 45.6985C39.0524 45.6972 39.294 45.6381 39.5121 45.5257L46.0382 42.1593L60.0868 49.6758C60.3426 49.812 60.6313 49.8739 60.9204 49.8547C61.2095 49.8356 61.4876 49.7363 61.7232 49.5676C61.9588 49.3989 62.1426 49.1678 62.2539 48.9003C62.3653 48.6328 62.3997 48.3395 62.3533 48.0534L59.7769 32.3277L71.2673 21.2869C71.4772 21.0858 71.6266 20.83 71.6984 20.5483C71.7702 20.2666 71.7617 19.9701 71.6738 19.693C71.5858 19.4159 71.422 19.1693 71.2009 18.9806C70.9798 18.7918 70.7102 18.6688 70.4227 18.6255L54.6666 16.2253L47.7213 1.87896C47.5969 1.62026 47.4033 1.401 47.162 1.2455C46.9207 1.09 46.6411 1.00431 46.3541 0.997884ZM46.2994 6.07774L52.2239 18.3156C52.3344 18.5423 52.4983 18.7387 52.7015 18.8879C52.9048 19.0372 53.1412 19.1348 53.3906 19.1724L66.8437 21.2262L57.0303 30.6507C56.8488 30.8255 56.7125 31.0419 56.6331 31.2811C56.5537 31.5203 56.5337 31.7752 56.5746 32.0239L58.7743 45.4467L46.7856 39.03C46.5627 38.91 46.314 38.846 46.0609 38.8439C45.8079 38.8418 45.5581 38.9016 45.3333 39.0178L39.9861 41.7765L39.4817 38.7019L51.0086 27.6246C51.2185 27.4235 51.3677 27.1676 51.4395 26.886C51.5113 26.6043 51.5027 26.3081 51.4148 26.0311C51.3269 25.754 51.1631 25.507 50.942 25.3183C50.7209 25.1295 50.4514 25.0065 50.164 24.9632L34.3654 22.5569L33.0711 19.8894L39.0139 19.0691C39.2642 19.0346 39.5023 18.9398 39.7077 18.7926C39.9131 18.6454 40.0796 18.4504 40.1927 18.2244L46.2994 6.07774H46.2994Z" fill="#4BB165"/>
<path d="M25.7194 7.31361C25.4825 7.35744 25.259 7.45544 25.0666 7.60034C24.8742 7.74524 24.718 7.93282 24.6104 8.14835L17.4284 22.4286L1.59684 24.6112C1.30848 24.6502 1.03683 24.7692 0.812762 24.9549C0.588691 25.1405 0.421177 25.3852 0.329248 25.6613C0.23732 25.9373 0.224664 26.234 0.292717 26.5169C0.360771 26.7998 0.506805 27.0579 0.714231 27.262L12.0822 38.5018L9.26042 54.2302C9.20767 54.5169 9.23655 54.8128 9.34376 55.0839C9.45097 55.355 9.6322 55.5906 9.86679 55.7637C10.1014 55.9368 10.3799 56.0405 10.6706 56.063C10.9612 56.0854 11.2524 56.0255 11.5108 55.8905L25.7092 48.5563L39.8043 56.0918C40.0598 56.2274 40.3481 56.2891 40.6367 56.2699C40.9253 56.2508 41.2029 56.1514 41.4382 55.9832C41.6735 55.815 41.8573 55.5847 41.9689 55.3178C42.0805 55.051 42.1154 54.7581 42.0698 54.4725L39.4839 38.6985L51.0091 27.6266C51.2182 27.4257 51.367 27.1701 51.4386 26.8891C51.5103 26.6081 51.5019 26.3126 51.4146 26.0361C51.3272 25.7596 51.1643 25.5133 50.9443 25.3244C50.7242 25.1356 50.4558 25.0118 50.1692 24.9674L34.3703 22.549L27.3965 8.16886C27.2489 7.86257 27.0049 7.61319 26.7021 7.45868C26.3992 7.30417 26.054 7.25334 25.7194 7.31361ZM25.9748 12.3623L31.9253 24.6442C32.0356 24.8707 32.1991 25.0669 32.4019 25.2162C32.6048 25.3655 32.8408 25.4634 33.0898 25.5014L46.5828 27.5647L36.7372 37.0196C36.5549 37.1945 36.418 37.411 36.3383 37.6507C36.2585 37.8904 36.2383 38.1462 36.2795 38.3955L38.4878 51.8676L26.4532 45.4247C26.2307 45.3083 25.9833 45.2474 25.7322 45.2474C25.4811 45.2474 25.2337 45.3083 25.0112 45.4247L12.8817 51.6899L15.2866 38.255C15.3307 38.0065 15.3136 37.751 15.2369 37.5106C15.1602 37.2702 15.0263 37.0523 14.8465 36.8752L5.14673 27.2734L18.6648 25.4087C18.9142 25.3741 19.1515 25.2792 19.3562 25.1326C19.5609 24.9861 19.7271 24.7924 19.8403 24.5675L25.9748 12.3737V12.3623Z" fill="#2B4255"/>
</svg>
