<svg width="112" height="57" viewBox="0 0 112 57" fill="none" xmlns="http://www.w3.org/2000/svg">
<path d="M83.2526 9.32865C77.2416 9.32865 72.3576 14.2133 72.3576 20.2236V29.3747C72.3576 32.4963 73.9382 35.2095 76.0217 37.1281C76.1231 37.2215 76.2703 37.1902 76.3741 37.2804C76.3461 37.2804 74.9644 37.98 72.7708 39.0916C72.5865 39.1826 72.4221 39.3092 72.287 39.4641C72.152 39.619 72.0489 39.7989 71.9839 39.9939C71.9189 40.1889 71.8931 40.3951 71.9081 40.6C71.9231 40.805 71.9785 41.0049 72.0712 41.1883C72.164 41.3717 72.2921 41.5351 72.4483 41.6687C72.6044 41.8023 72.7855 41.9036 72.9811 41.9668C73.1767 42.0301 73.3828 42.0536 73.5876 42.0367C73.7925 42.0198 73.9919 41.9625 74.1745 41.8681C76.3798 40.7509 77.7899 40.0516 77.7899 40.0516L79.3637 39.2739C80.4004 39.6783 81.528 40.2204 83.2587 40.2761C83.3153 40.2792 83.3721 40.2792 83.4288 40.2761C85.3669 40.1299 86.3636 39.5926 87.3967 39.2249L88.8003 39.9115L88.6181 39.809C89.1169 40.1418 89.5565 40.3162 90.4896 40.7751C91.4227 41.234 92.6981 41.858 94.2752 42.6466C97.4144 44.2162 101.763 46.4587 106.944 49.3489C108.399 50.2629 108.889 51.5068 108.889 53.6267V55.0728C108.886 55.279 108.924 55.4835 109.001 55.6748C109.078 55.8661 109.192 56.0403 109.337 56.1871C109.481 56.3339 109.654 56.4505 109.844 56.53C110.034 56.6096 110.238 56.6504 110.444 56.6504C110.651 56.6504 110.855 56.6096 111.045 56.53C111.235 56.4505 111.408 56.3339 111.552 56.1871C111.697 56.0403 111.811 55.8661 111.888 55.6748C111.965 55.4835 112.003 55.279 112 55.0728V53.6267C112 50.8783 111.02 48.2203 108.585 46.6996C108.565 46.6867 108.545 46.674 108.524 46.662C103.259 43.7232 98.8493 41.4542 95.6667 39.8629C94.0753 39.0671 92.7882 38.4401 91.8629 37.9849C90.9375 37.5301 90.2167 37.1307 90.3498 37.2197C90.3419 37.2092 90.3338 37.1988 90.3256 37.1885C90.3714 37.1481 90.4382 37.1575 90.4835 37.1202C92.567 35.2015 94.1537 32.4884 94.1537 29.3667V20.2156C94.1537 14.205 89.2635 9.32068 83.2526 9.32068L83.2526 9.32865ZM83.2526 12.4398C87.5934 12.4398 91.0425 15.883 91.0425 20.2236V29.3747C91.0425 31.4289 89.9651 33.3846 88.3811 34.8434C86.8077 36.2923 84.7567 37.1345 83.289 37.1464C83.2869 37.146 83.285 37.1464 83.2828 37.1464C83.221 37.1436 83.1789 37.1028 83.1188 37.0966C81.6578 37.0531 79.6728 36.2631 78.13 34.8423C76.5459 33.3835 75.4686 31.4278 75.4686 29.3735V20.2225C75.4686 15.8819 78.9115 12.439 83.2524 12.439L83.2526 12.4398Z" fill="#4BB165"/>
<path d="M55.8359 0.997925C48.8693 0.997925 43.2092 6.65857 43.2092 13.6247V24.4649C43.2092 28.0642 45.0406 31.2091 47.4627 33.4398C47.676 33.6358 47.9452 33.7228 48.1675 33.9076L47.8516 34.0664C47.8516 34.0664 43.5923 36.1753 38.0564 39.0373C37.8749 39.131 37.7135 39.2594 37.5817 39.4155C37.4498 39.5716 37.35 39.7521 37.2879 39.9468C37.2258 40.1415 37.2027 40.3467 37.2198 40.5503C37.237 40.7539 37.2941 40.9521 37.3878 41.1336C37.4816 41.3152 37.6102 41.4765 37.7663 41.6083C37.9224 41.7402 38.103 41.8398 38.2977 41.9019C38.4924 41.964 38.6974 41.987 38.901 41.9699C39.1046 41.9527 39.3028 41.8958 39.4844 41.802C44.9962 38.9525 49.2309 36.8554 49.2309 36.8554L51.1632 35.9018C52.6555 36.6121 54.2066 37.0529 55.7448 37.0685C55.775 37.0688 55.8057 37.0996 55.8359 37.0996C55.8415 37.1 55.8425 37.0996 55.8481 37.0996C55.9047 37.1027 55.9615 37.1027 56.0182 37.0996C56.5178 37.0623 56.635 36.9036 57.0512 36.8258C58.2242 36.6734 59.3833 36.4484 60.5147 35.9083C60.5864 35.8772 60.7109 35.8614 60.7821 35.8365L62.5321 36.6937L62.3498 36.5907C62.8822 36.9457 63.4266 37.1774 64.5313 37.721C65.6359 38.2642 67.1461 39.0043 69.0156 39.9388C72.7411 41.8018 77.9027 44.4549 84.0547 47.8868C85.867 49.0264 86.4852 50.6287 86.4852 53.1975V54.9111C86.4823 55.1172 86.5204 55.3217 86.5973 55.513C86.6741 55.7043 86.7883 55.8785 86.933 56.0253C87.0777 56.1721 87.2502 56.2887 87.4404 56.3683C87.6306 56.4478 87.8346 56.4886 88.0408 56.4886C88.2469 56.4886 88.451 56.4478 88.6412 56.3683C88.8314 56.2887 89.0039 56.1721 89.1486 56.0253C89.2933 55.8785 89.4075 55.7043 89.4843 55.513C89.5612 55.3217 89.5993 55.1172 89.5964 54.9111V53.1975C89.5964 49.999 88.4838 46.9831 85.6892 45.2374C85.6673 45.2245 85.645 45.2121 85.6224 45.2002C79.3893 41.7214 74.1748 39.0385 70.4071 37.1547C68.5233 36.213 67.0015 35.4706 65.9045 34.9311C64.8076 34.3917 63.9764 33.9351 64.0755 34.0011C64.0172 33.9628 63.9563 33.9286 63.8933 33.8985L63.6867 33.7956C63.8475 33.6587 64.0472 33.5998 64.2032 33.4557C66.6252 31.225 68.4566 28.0801 68.4566 24.4809V13.6406C68.4566 6.67452 62.8025 1.01388 55.836 1.01388L55.8359 0.997925ZM55.8359 4.10904C61.1324 4.10904 65.3455 8.3283 65.3455 13.6247V24.4649C65.3455 26.9968 64.0173 29.3784 62.0946 31.149C60.1871 32.9055 57.7205 33.9337 55.8845 33.9502C55.8793 33.9508 55.8777 33.9502 55.8724 33.9502C55.8702 33.9499 55.8684 33.9502 55.8662 33.9502C55.8016 33.9474 55.7591 33.9127 55.696 33.9065C53.8685 33.8598 51.4511 32.8731 49.571 31.1417C47.6483 29.3712 46.3202 26.9895 46.3202 24.4577V13.6174C46.3202 8.32109 50.5391 4.10182 55.8358 4.10182L55.8359 4.10904Z" fill="#373748"/>
<path d="M28.4618 9.32868C22.4508 9.32868 17.5668 14.2133 17.5668 20.2236V29.3747C17.5668 32.4964 19.1474 35.2095 21.2309 37.1282C21.3323 37.2215 21.4795 37.1902 21.5833 37.2804C21.5453 37.3116 12.5628 41.7526 4.51473 46.1402C2.14824 47.3237 -2.7538e-05 49.6472 -2.7538e-05 52.6473V54.9259C-0.00294272 55.132 0.0351392 55.3366 0.112005 55.5278C0.188871 55.7191 0.302988 55.8934 0.447724 56.0402C0.592459 56.187 0.764928 56.3035 0.955106 56.3831C1.14528 56.4627 1.34938 56.5035 1.55553 56.5035C1.76168 56.5035 1.96577 56.4627 2.15595 56.3831C2.34613 56.3035 2.5186 56.187 2.66333 56.0402C2.80807 55.8934 2.92219 55.7191 2.99905 55.5278C3.07592 55.3366 3.114 55.132 3.11108 54.9259V52.6473C3.11108 51.2606 4.37314 49.6896 5.90622 48.9224C5.92262 48.9124 5.93882 48.902 5.95483 48.8913C13.9582 44.5255 22.9991 40.0441 22.9991 40.0441L24.5729 39.2663C25.6096 39.6707 26.7372 40.2132 28.4679 40.2689C28.5245 40.272 28.5813 40.272 28.638 40.2689C30.5761 40.1227 31.5727 39.5854 32.6059 39.2177L34.0095 39.9043L33.8272 39.8014C34.3261 40.1343 34.7657 40.3086 35.6988 40.7675C36.6319 41.2264 37.9073 41.8504 39.4844 42.6391C42.6236 44.2086 46.9717 46.4511 52.1536 49.3413C53.6086 50.2554 54.0981 51.4992 54.0981 53.6191V55.0653C54.0952 55.2714 54.1332 55.4759 54.2101 55.6672C54.287 55.8585 54.4011 56.0327 54.5458 56.1795C54.6906 56.3263 54.863 56.4429 55.0532 56.5225C55.2434 56.602 55.4475 56.6429 55.6536 56.6429C55.8598 56.6429 56.0639 56.602 56.2541 56.5225C56.4442 56.4429 56.6167 56.3263 56.7614 56.1795C56.9062 56.0327 57.0203 55.8585 57.0972 55.6672C57.174 55.4759 57.2121 55.2714 57.2092 55.0653V53.6191C57.2092 50.8707 56.229 48.2127 53.7943 46.692C53.7743 46.6791 53.754 46.6668 53.7335 46.6548C48.4678 43.716 44.0524 41.4467 40.8698 39.8553C39.2785 39.0595 37.9974 38.4325 37.072 37.9773C36.1467 37.5225 35.4258 37.1231 35.559 37.2121C35.5511 37.2016 35.543 37.1912 35.5348 37.1809C35.5806 37.1405 35.6474 37.1499 35.6927 37.1126C37.7762 35.194 39.3629 32.4808 39.3629 29.3591V20.2081C39.3629 14.1974 34.4727 9.31311 28.4618 9.31311L28.4618 9.32868ZM28.4618 12.4398C32.8026 12.4398 36.2517 15.883 36.2517 20.2236V29.3747C36.2517 31.429 35.1683 33.3846 33.5842 34.8434C32.0109 36.2923 29.9659 37.1346 28.4982 37.1464C28.4961 37.1461 28.4943 37.1464 28.4922 37.1464C28.4303 37.1436 28.3882 37.1029 28.3281 37.0966C26.8671 37.0531 24.8821 36.2631 23.3394 34.8423C21.7553 33.3835 20.6779 31.4278 20.6779 29.3735V20.2225C20.6779 15.8819 24.1208 12.439 28.4618 12.439L28.4618 12.4398Z" fill="#4BB165"/>
</svg>
