<svg width="100" height="100" viewBox="0 0 100 100" fill="none" xmlns="http://www.w3.org/2000/svg">
<path d="M25.5547 35.5848C24.9777 35.5848 24.567 35.8617 24.3151 36.1256C24.0632 36.39 23.9025 36.6811 23.8472 37.1039L22.6319 44.3348L16.7439 40.0934C16.3563 39.7948 16.0413 39.7348 15.6988 39.7289C15.3563 39.7289 14.9153 39.7693 14.4653 40.2089C14.4612 40.2089 14.4572 40.2089 14.4531 40.2089L4.85849 49.8031C4.85433 49.8135 4.85027 49.8239 4.84633 49.8343C4.42103 50.2711 4.35864 50.7263 4.36629 51.0739C4.37385 51.4173 4.44145 51.7249 4.71265 52.0886C4.71604 52.0886 4.71525 52.0886 4.71872 52.0886L8.97219 57.9827L1.6866 59.2101L1.94181 59.179C1.36098 59.179 0.9953 59.4187 0.726528 59.6894C0.457789 59.9787 0.222221 60.3423 0.222221 60.9172V74.4493C0.222221 75.0243 0.495657 75.433 0.756944 75.6828C1.01352 75.9286 1.2934 76.0799 1.68663 76.1447H1.6927C1.69786 76.1456 1.69964 76.1447 1.70486 76.1447L8.98438 77.366L4.71875 83.3448C4.43173 83.724 4.37386 84.0268 4.36632 84.3721C4.35879 84.7174 4.40908 85.1872 4.87674 85.6421L14.4349 95.1212C14.4393 95.1212 14.4426 95.1228 14.4471 95.1212C14.8895 95.5673 15.3635 95.6346 15.7109 95.6256C16.0619 95.6256 16.3734 95.5506 16.75 95.261L22.632 91.0743L23.8472 98.2263C23.8981 98.6671 24.0671 98.9686 24.3212 99.2349C24.5753 99.5025 24.9777 99.7697 25.5547 99.7697H39.0807C39.6558 99.7697 40.068 99.4958 40.3203 99.2289C40.5727 98.9613 40.7332 98.6715 40.7882 98.2506L41.9427 91.0014L47.9705 95.2671C47.9725 95.2686 47.9745 95.2655 47.9767 95.2671C48.3492 95.5502 48.6608 95.6168 49.0097 95.6256C49.3604 95.6256 49.8334 95.5725 50.2797 95.1151L59.7649 85.636C60.2316 85.1821 60.2826 84.7123 60.2753 84.366C60.2682 84.0216 60.2027 83.7168 59.9168 83.3391L55.6512 77.3599L62.955 76.1325L62.6937 76.1636C63.2746 76.1636 63.6403 75.9239 63.909 75.6532C64.1778 75.3826 64.4134 75.019 64.4134 74.444V60.9119C64.4134 60.337 64.146 59.934 63.8847 59.6845C63.6234 59.4356 63.3355 59.2731 62.9307 59.2105L55.7241 58.0499L59.9168 52.0951C60.2039 51.7161 60.2678 51.4074 60.2753 51.0621C60.2828 50.7167 60.2326 50.2533 59.7649 49.7982L50.2736 40.2218C50.2656 40.2113 50.2576 40.2009 50.2493 40.1907C49.8003 39.7539 49.3642 39.705 49.0219 39.7106C48.6796 39.7106 48.3583 39.7759 47.9707 40.0752L42.0098 44.3287L40.7945 37.1099C40.7438 36.671 40.575 36.3689 40.3205 36.1016C40.066 35.8341 39.656 35.5665 39.0809 35.5665H25.5549L25.5547 35.5848ZM26.7335 38.6959H37.9019L39.3542 47.3183C39.398 47.5782 39.5071 47.823 39.6714 48.0292C39.8357 48.2354 40.0496 48.3962 40.2932 48.4971C40.5368 48.5979 40.8021 48.6351 41.064 48.6053C41.326 48.5755 41.5761 48.4799 41.7908 48.3269L48.888 43.2592L56.7569 51.1889L51.75 58.2983C51.5969 58.5139 51.5013 58.7651 51.4722 59.0278C51.4431 59.2906 51.4814 59.5565 51.5835 59.8003C51.6857 60.0442 51.8483 60.2577 52.0561 60.4212C52.2638 60.5848 52.5098 60.6929 52.7708 60.7349L61.3021 62.1082V73.2644L52.6797 74.7167C52.4197 74.7605 52.1751 74.8696 51.9689 75.0338C51.7627 75.1981 51.6016 75.4119 51.5007 75.6555C51.3999 75.8991 51.3626 76.1645 51.3924 76.4264C51.4222 76.6884 51.5181 76.9386 51.671 77.1533L56.7448 84.2627L48.8941 92.1195L41.6996 87.0335C41.4837 86.8818 41.2328 86.7874 40.9704 86.7593C40.708 86.7313 40.4428 86.7706 40.1997 86.8733C39.9567 86.976 39.7437 87.1388 39.5809 87.3465C39.4181 87.5541 39.3108 87.7999 39.2691 88.0605L37.8898 96.6707H26.7274L25.2812 88.1273C25.2369 87.8683 25.1278 87.6248 24.9639 87.4194C24.8 87.214 24.5868 87.0534 24.3441 86.9527C24.1014 86.8519 23.8372 86.8146 23.576 86.8437C23.3149 86.8727 23.0654 86.9671 22.8507 87.1186L15.8203 92.1195L7.89062 84.2566L12.9644 77.1533C13.1174 76.9386 13.2132 76.6884 13.243 76.4264C13.2728 76.1645 13.2355 75.8991 13.1347 75.6555C13.0338 75.4119 12.8727 75.1981 12.6665 75.0338C12.4603 74.8696 12.2157 74.7605 11.9557 74.7167L3.33333 73.2644V62.1021L11.9557 60.6499C12.2162 60.6057 12.4612 60.4962 12.6675 60.3312C12.8738 60.1662 13.0347 59.9513 13.135 59.7069C13.2353 59.4625 13.2717 59.1964 13.2408 58.934C13.2099 58.6717 13.1127 58.4216 12.9583 58.2072L7.89062 51.1828L15.8142 43.2592L22.8385 48.3269C23.0534 48.4828 23.3046 48.5812 23.5682 48.6125C23.8318 48.6439 24.099 48.6073 24.3444 48.5062C24.5899 48.4051 24.8054 48.2428 24.9704 48.0349C25.1354 47.827 25.2445 47.5802 25.2873 47.3183L26.7335 38.6959ZM32.3602 54.1967C24.9174 54.1967 18.8342 60.2798 18.8342 67.7228C18.8342 75.1655 24.9302 81.1698 32.3602 81.1698C39.7902 81.1698 45.8012 75.1527 45.8012 67.7228C45.8012 60.2928 39.8031 54.1967 32.3602 54.1967ZM32.3602 57.3078C38.1147 57.3078 42.6901 61.9554 42.6901 67.7228C42.6901 73.4902 38.1275 78.0587 32.3602 78.0587C26.5929 78.0587 21.9453 73.4771 21.9453 67.7228C21.9453 61.9682 26.6058 57.3078 32.3602 57.3078Z" fill="#2B4255"/>
<path d="M70.7326 0.22012C70.1626 0.22012 69.7669 0.490665 69.5234 0.748576C69.2812 1.00369 69.1216 1.2796 69.0677 1.69649C69.0674 1.69867 69.068 1.69649 69.0677 1.69649L68.2838 6.35708L64.5043 3.62879C64.1341 3.33945 63.8308 3.27825 63.4896 3.27047C63.1484 3.27047 62.6849 3.32334 62.25 3.76854L55.1953 10.8232C55.1892 10.8232 55.1831 10.8232 55.1769 10.8232C54.7579 11.2547 54.7021 11.6963 54.7091 12.0326C54.7159 12.3668 54.7819 12.6739 55.0737 13.0472C55.0752 13.0494 55.0721 13.0472 55.0737 13.0472L57.7959 16.8206L53.0806 17.6164L53.3358 17.5853C52.7631 17.5853 52.4105 17.8219 52.1509 18.0836C51.8913 18.3449 51.6587 18.6927 51.6587 19.2624V29.2277C51.6587 29.7948 51.9227 30.1894 52.1752 30.4308C52.4277 30.6703 52.7003 30.8252 53.0927 30.8865L57.8141 31.6765L55.0736 35.5167C54.7675 35.9056 54.7159 36.2047 54.7091 36.5376C54.7022 36.8705 54.7415 37.3262 55.2195 37.7832L62.2499 44.7528C62.6872 45.203 63.1486 45.2589 63.4894 45.2511C63.8303 45.2511 64.1327 45.1829 64.5042 44.8926L68.2837 42.2068L69.0797 46.8853L69.0676 46.7892C69.1142 47.2319 69.2825 47.5265 69.5294 47.7853C69.7763 48.0436 70.1652 48.3018 70.7325 48.3018H80.7039C81.2739 48.3018 81.6696 48.0376 81.9131 47.7796C82.1535 47.5245 82.3076 47.2493 82.3627 46.8374L83.1101 42.1465L86.9929 44.893C87.3631 45.1823 87.6662 45.2438 88.0077 45.2519C88.3492 45.2519 88.8113 45.2022 89.2473 44.7536L96.2412 37.7597C96.2474 37.7494 96.2536 37.739 96.2596 37.7285C96.6786 37.297 96.7344 36.8614 96.7274 36.5254C96.7206 36.1891 96.6586 35.8804 96.3629 35.5046L93.6224 31.6643L98.362 30.8744L98.1007 30.9055C98.6462 30.9055 99.0095 30.6848 99.2795 30.4198C99.5495 30.1896 99.7778 29.8097 99.7778 29.2653V19.3C99.7778 18.7328 99.5138 18.3383 99.2613 18.0969C99.0101 17.8573 98.7389 17.7032 98.3498 17.6409H98.3436L93.6769 16.8878L96.3627 13.0717C96.6689 12.6825 96.7205 12.3777 96.7273 12.0448C96.7341 11.7119 96.6949 11.2619 96.2169 10.8052L89.2472 3.77481C88.8099 3.32463 88.3489 3.26865 88.0077 3.27673C87.6665 3.27673 87.3603 3.34507 86.9868 3.64094L83.1526 6.37531L82.3566 1.64219L82.3688 1.73865C82.3221 1.29594 82.1539 1.00096 81.9069 0.74212C81.66 0.483898 81.2712 0.21936 80.7038 0.21936H70.7325L70.7326 0.22012ZM71.954 3.33123H79.4826L80.4974 9.34686C80.5412 9.60684 80.6504 9.85139 80.8146 10.0576C80.9789 10.2638 81.1929 10.4248 81.4365 10.5257C81.6801 10.6265 81.9453 10.6639 82.2072 10.6341C82.4692 10.6043 82.7193 10.5083 82.934 10.3553L87.8863 6.81908L93.197 12.1724L89.7031 17.1307C89.55 17.3463 89.4544 17.5975 89.4253 17.8603C89.3962 18.123 89.4345 18.3889 89.5367 18.6327C89.6388 18.8766 89.8015 19.0905 90.0092 19.254C90.2169 19.4176 90.4629 19.5253 90.7239 19.5673L96.6667 20.5213V28.0561L90.6571 29.0647C90.3971 29.1085 90.1525 29.2176 89.9463 29.3819C89.7401 29.5461 89.579 29.7603 89.4782 30.0039C89.3773 30.2475 89.34 30.5125 89.3698 30.7745C89.3996 31.0364 89.4955 31.2866 89.6484 31.5014L93.1849 36.4536L87.8863 41.7522L82.8672 38.2036C82.6513 38.0519 82.4003 37.9575 82.1379 37.9294C81.8755 37.9014 81.6103 37.9407 81.3673 38.0434C81.1242 38.1461 80.9113 38.3089 80.7484 38.5166C80.5856 38.7242 80.4783 38.97 80.4366 39.2305L79.4766 45.2279H71.9479L70.9392 39.2792C70.8954 39.0192 70.7863 38.7744 70.622 38.5682C70.4577 38.362 70.2438 38.2012 70.0002 38.1003C69.7566 37.9995 69.4913 37.9619 69.2294 37.9917C68.9674 38.0215 68.7173 38.1175 68.5026 38.2705L63.605 41.7522L58.2517 36.4476L61.7882 31.5014C61.9411 31.2866 62.037 31.0364 62.0668 30.7745C62.0966 30.5125 62.0593 30.2475 61.9584 30.0039C61.8576 29.7603 61.6965 29.5461 61.4903 29.3819C61.2841 29.2176 61.0395 29.1085 60.7795 29.0647L54.77 28.0561V20.5092L60.7795 19.5005C61.0405 19.4572 61.2862 19.3481 61.4932 19.1834C61.7003 19.0187 61.862 18.804 61.963 18.5594C62.0639 18.3149 62.1009 18.0486 62.0703 17.7858C62.0397 17.523 61.9426 17.2724 61.7882 17.0576L58.2578 12.1663L63.605 6.81908L68.4965 10.3495C68.7109 10.5038 68.9611 10.6011 69.2235 10.632C69.4858 10.6629 69.7518 10.6264 69.9962 10.5261C70.2405 10.4257 70.4554 10.2649 70.6204 10.0586C70.7854 9.85224 70.8951 9.60733 70.9392 9.34686L71.954 3.33123ZM75.7517 13.9343C70.0453 13.9343 65.3733 18.6066 65.3733 24.313C65.3733 30.0194 70.0583 34.6307 75.7517 34.6307C81.4452 34.6307 86.0634 30.0067 86.0634 24.313C86.0634 18.6197 81.4581 13.9343 75.7517 13.9343ZM75.7517 17.0455C79.7696 17.0455 82.9522 20.2823 82.9522 24.313C82.9522 28.3441 79.7826 31.5196 75.7517 31.5196C71.7209 31.5196 68.4844 28.331 68.4844 24.313C68.4844 20.295 71.7338 17.0455 75.7517 17.0455Z" fill="#4BB165"/>
</svg>
