<svg width="94" height="93" viewBox="0 0 94 93" fill="none" xmlns="http://www.w3.org/2000/svg">
<path fill-rule="evenodd" clip-rule="evenodd" d="M46.9083 0.291504C21.2648 0.291504 0.409973 21.0742 0.409973 46.6207C0.409973 72.1642 21.2679 92.9375 46.9083 92.9375C72.5488 92.9375 93.4253 72.1611 93.4253 46.6207C93.4253 21.0742 72.5519 0.291504 46.9083 0.291504ZM46.9083 89.6133C23.1071 89.6133 3.7472 70.3352 3.7472 46.6207C3.7472 22.9062 23.1071 3.6157 46.9083 3.6157C70.7158 3.6157 90.088 22.9062 90.088 46.6207C90.088 70.3352 70.7158 89.6133 46.9083 89.6133ZM67.8748 42.2337L38.7605 26.1346C34.7937 23.938 30.9943 26.2675 30.9943 30.6915V62.5405C30.9943 65.7937 32.8707 67.9842 35.659 67.9842C36.6639 67.9842 37.7123 67.6876 38.7668 67.1037L67.8748 50.9984C69.8009 49.9356 70.9111 48.3385 70.9111 46.6238C70.9111 44.9092 69.8009 43.3088 67.8748 42.2337ZM66.2527 48.0882L37.1509 64.1934C36.5988 64.4961 36.0901 64.6569 35.6621 64.6569C34.5114 64.6569 34.3346 63.3346 34.3346 62.5375V30.6915C34.3346 29.9007 34.5114 28.5784 35.6621 28.5784C36.0932 28.5784 36.6019 28.7421 37.1509 29.0418L66.2527 45.1409C67.0653 45.5919 67.5739 46.1604 67.5739 46.6207C67.5708 47.0748 67.0622 47.6402 66.2527 48.0882Z" fill="#4BB165"/>
</svg>
