<svg width="90" height="90" viewBox="0 0 90 90" fill="none" xmlns="http://www.w3.org/2000/svg">
<path d="M19.75 26C23.2018 26 26 23.2018 26 19.75C26 16.2982 23.2018 13.5 19.75 13.5C16.2982 13.5 13.5 16.2982 13.5 19.75C13.5 23.2018 16.2982 26 19.75 26Z" stroke="#4BB165" stroke-width="2" stroke-linecap="round" stroke-linejoin="round"/>
<path d="M26 34.3335H13.5V76.0002H26V34.3335Z" stroke="#4BB165" stroke-width="2" stroke-linecap="round" stroke-linejoin="round"/>
<path d="M59.3333 34.3334C56.899 34.2824 54.4888 34.8248 52.311 35.9137C50.1332 37.0026 48.2532 38.6053 46.8333 40.5834V34.3334H34.3333V76H46.8333V53.0834C46.8333 46.1667 50.5417 42.6667 55.1667 42.6667C59.7917 42.6667 63.5 46.1667 63.5 53.0834V76H76V53.0834C76 41.7084 69.75 34.3334 59.3333 34.3334Z" stroke="#4BB165" stroke-width="2" stroke-linecap="round" stroke-linejoin="round"/>
<path d="M82.25 1H7.25C3.79822 1 1 3.79822 1 7.25V82.25C1 85.7018 3.79822 88.5 7.25 88.5H82.25C85.7018 88.5 88.5 85.7018 88.5 82.25V7.25C88.5 3.79822 85.7018 1 82.25 1Z" stroke="#4BB165" stroke-width="2" stroke-linecap="round" stroke-linejoin="round"/>
</svg>
