<svg width="40" height="40" viewBox="0 0 40 40" fill="none" xmlns="http://www.w3.org/2000/svg">
<path d="M37.425 8.35C37.3952 8.27141 37.3575 8.19603 37.3125 8.125C37.2946 8.07787 37.2738 8.03195 37.25 7.9875C37.1336 7.87199 37.0035 7.77124 36.8625 7.6875L36.65 7.6125H36.4H3.675C3.58774 7.60329 3.49976 7.60329 3.4125 7.6125L3.2 7.6875C3.13386 7.72344 3.07111 7.76527 3.0125 7.8125C2.94477 7.86031 2.88196 7.91475 2.825 7.975C2.80121 8.01943 2.78033 8.06536 2.7625 8.1125C2.6303 8.24664 2.53922 8.41579 2.5 8.6C2.49677 8.64995 2.49677 8.70005 2.5 8.75V31.25C2.5 31.5815 2.6317 31.8995 2.86612 32.1339C3.10054 32.3683 3.41848 32.5 3.75 32.5H36.25C36.5815 32.5 36.8995 32.3683 37.1339 32.1339C37.3683 31.8995 37.5 31.5815 37.5 31.25V8.75C37.5032 8.70005 37.5032 8.64995 37.5 8.6C37.4838 8.51428 37.4587 8.43049 37.425 8.35ZM32.575 10L20 19.675L7.425 10H32.575ZM35 30H5V11.25L19.2375 22.2C19.4561 22.3683 19.7242 22.4595 20 22.4595C20.2758 22.4595 20.5439 22.3683 20.7625 22.2L35 11.25V30Z" fill="#4BB165"/>
</svg>
