<svg width="46" height="46" viewBox="0 0 46 46" fill="none" xmlns="http://www.w3.org/2000/svg">
<path d="M0 3C0 1.34315 1.34315 0 3 0H14.0857C15.7426 0 17.0857 1.34315 17.0857 3V27.4427C17.0857 28.8028 16.5317 30.1042 15.5513 31.0469L3.38621 42.744C2.11541 43.966 0 43.0653 0 41.3024V3Z" fill="#4BB165"/>
<path d="M24.6429 3C24.6429 1.34315 25.986 0 27.6429 0H38.7286C40.3855 0 41.7286 1.34315 41.7286 3V27.4427C41.7286 28.8028 41.1745 30.1042 40.1941 31.0469L28.0291 42.744C26.7583 43.966 24.6429 43.0653 24.6429 41.3024V3Z" fill="#4BB165"/>
</svg>
