<svg width="137" height="130" viewBox="0 0 137 130" fill="none" xmlns="http://www.w3.org/2000/svg">
<path d="M30.0201 0.351301C29.7198 0.347055 29.4218 0.402521 29.1432 0.514475C28.8646 0.626428 28.611 0.792639 28.3972 1.00344C28.1834 1.21425 28.0136 1.46544 27.8977 1.74243C27.7818 2.01941 27.7222 2.31667 27.7222 2.61693C27.7222 2.91718 27.7818 3.21444 27.8977 3.49143C28.0136 3.76842 28.1834 4.01961 28.3972 4.23041C28.611 4.44121 28.8646 4.60743 29.1432 4.71938C29.4218 4.83133 29.7198 4.8868 30.0201 4.88255H125.141C125.441 4.8868 125.739 4.83133 126.018 4.71938C126.296 4.60743 126.55 4.44121 126.764 4.23041C126.978 4.01961 127.147 3.76842 127.263 3.49143C127.379 3.21444 127.439 2.91718 127.439 2.61693C127.439 2.31667 127.379 2.01941 127.263 1.74243C127.147 1.46544 126.978 1.21425 126.764 1.00344C126.55 0.792639 126.296 0.626428 126.018 0.514475C125.739 0.402521 125.441 0.347055 125.141 0.351301H30.0201Z" fill="#2B4255"/>
<path d="M29.9846 0.351318C23.7477 0.351318 18.6565 5.44308 18.6565 11.6794V102.304H23.1877V11.6794C23.1877 7.87455 26.1794 4.88257 29.9846 4.88257C33.7887 4.88257 36.7815 7.87501 36.7815 11.6794V20.7419H41.3127V11.6794C41.3127 5.44263 36.2209 0.351318 29.9846 0.351318Z" fill="#2B4255"/>
<path d="M18.6565 11.6794V102.304C18.6565 106.109 15.6637 109.101 11.8596 109.101C8.0544 109.101 5.06274 106.109 5.06274 102.304V93.242H0.531494V102.304C0.531494 108.541 5.62268 113.633 11.8596 113.633C18.0959 113.633 23.1877 108.541 23.1877 102.304V11.6794H18.6565ZM116.043 18.4409C115.745 18.4456 115.452 18.5092 115.179 18.6273C114.906 18.7455 114.658 18.9159 114.451 19.1296C114.244 19.3432 114.081 19.5958 113.972 19.8724C113.862 20.1491 113.808 20.4444 113.813 20.7419V102.304C113.808 102.605 113.864 102.903 113.976 103.182C114.088 103.46 114.254 103.714 114.465 103.927C114.676 104.141 114.927 104.311 115.204 104.427C115.481 104.543 115.778 104.603 116.078 104.603C116.379 104.603 116.676 104.543 116.953 104.427C117.23 104.311 117.481 104.141 117.692 103.927C117.903 103.714 118.069 103.46 118.181 103.182C118.293 102.903 118.348 102.605 118.344 102.304V20.7419C118.349 20.4385 118.292 20.1371 118.178 19.8558C118.065 19.5745 117.895 19.3193 117.681 19.1047C117.466 18.8901 117.21 18.7203 116.929 18.6063C116.648 18.4924 116.346 18.4362 116.043 18.4409Z" fill="#2B4255"/>
<path d="M36.8081 18.4763V23.0076H136.469V18.4763H36.8081ZM116.043 63.7534C115.745 63.7581 115.452 63.8217 115.179 63.9398C114.906 64.058 114.658 64.2284 114.451 64.4421C114.244 64.6557 114.081 64.9083 113.972 65.1849C113.862 65.4616 113.808 65.7569 113.813 66.0544V102.304C113.813 106.109 110.821 109.101 107.016 109.101C101.995 109.101 95.4488 109.101 95.4488 109.101C95.1486 109.097 94.8505 109.153 94.5719 109.265C94.2933 109.376 94.0398 109.543 93.826 109.753C93.6122 109.964 93.4424 110.215 93.3265 110.492C93.2106 110.769 93.1509 111.067 93.1509 111.367C93.1509 111.667 93.2106 111.964 93.3265 112.241C93.4424 112.518 93.6122 112.77 93.826 112.98C94.0398 113.191 94.2933 113.357 94.5719 113.469C94.8505 113.581 95.1486 113.637 95.4488 113.633C95.4488 113.633 101.995 113.633 107.016 113.633C113.253 113.633 118.344 108.541 118.344 102.304V66.0544C118.349 65.751 118.293 65.4496 118.179 65.1683C118.065 64.887 117.895 64.6318 117.681 64.4172C117.466 64.2026 117.21 64.0328 116.929 63.9188C116.648 63.8049 116.346 63.7487 116.043 63.7534ZM11.8597 109.101C11.5594 109.097 11.2614 109.153 10.9828 109.265C10.7042 109.376 10.4506 109.543 10.2368 109.753C10.023 109.964 9.85321 110.215 9.73732 110.492C9.62144 110.769 9.56177 111.067 9.56177 111.367C9.56177 111.667 9.62144 111.964 9.73732 112.241C9.85321 112.518 10.023 112.77 10.2368 112.98C10.4506 113.191 10.7042 113.357 10.9828 113.469C11.2614 113.581 11.5594 113.637 11.8597 113.633H73.8988C74.1991 113.637 74.4971 113.581 74.7757 113.469C75.0543 113.357 75.3079 113.191 75.5217 112.98C75.7355 112.77 75.9053 112.518 76.0212 112.241C76.1371 111.964 76.1967 111.667 76.1967 111.367C76.1967 111.067 76.1371 110.769 76.0212 110.492C75.9053 110.215 75.7355 109.964 75.5217 109.753C75.3079 109.543 75.0543 109.376 74.7757 109.265C74.4971 109.153 74.1991 109.097 73.8988 109.101H11.8597Z" fill="#2B4255"/>
<path fill-rule="evenodd" clip-rule="evenodd" d="M0.540283 90.9763V95.5076H20.8955V90.9763H0.540283Z" fill="#2B4255"/>
<path d="M125.141 0.351318V4.88257C128.946 4.88257 131.938 7.87455 131.938 11.6794V20.7419H136.469V11.6794C136.469 5.44263 131.377 0.351318 125.141 0.351318Z" fill="#2B4255"/>
<path d="M91.1566 97.1714V121.748L84.7137 117.704L77.554 121.899V98.375H73.0227V129.793L84.634 122.996L95.6878 129.934V97.1714H91.1566ZM84.3056 69.1094C83.0774 69.1094 82.6356 69.7251 82.339 70.0514C82.0425 70.3776 81.8647 70.6626 81.6874 70.9613C81.3328 71.5576 81.0282 72.2008 80.7326 72.8397C80.437 73.4786 80.1582 74.1064 79.9406 74.55C79.9275 74.5953 79.9243 74.595 79.9116 74.6086C79.8849 74.6131 79.879 74.6086 79.8508 74.6086C79.3677 74.6856 78.6916 74.7718 78.0013 74.8669C77.3109 74.9621 76.6121 75.0616 75.9442 75.2292C75.6102 75.3108 75.2878 75.4019 74.8922 75.5876C74.4966 75.778 73.7947 76.0221 73.4224 77.2089C73.05 78.3942 73.483 79.0061 73.6976 79.3926C73.9122 79.7778 74.1243 80.0392 74.3496 80.302C74.8004 80.8281 75.3124 81.3188 75.8212 81.801C76.33 82.2831 76.8327 82.747 77.1822 83.0936C77.2026 83.0936 77.2062 83.139 77.2257 83.139C77.2217 83.1843 77.2218 83.1845 77.2175 83.2026C77.142 83.692 77.0125 84.3664 76.8892 85.0606C76.7659 85.7552 76.6463 86.4606 76.5954 87.1553C76.57 87.5042 76.5532 87.8397 76.6094 88.2792C76.6654 88.7188 76.6782 89.4718 77.6762 90.1964H77.6785C78.6767 90.9209 79.3856 90.6934 79.8147 90.6046C80.2438 90.5185 80.554 90.3915 80.8706 90.2556C81.5038 89.9837 82.1236 89.6433 82.7336 89.3025C83.3437 88.9627 83.9338 88.6186 84.3673 88.3893C84.3923 88.3893 84.3981 88.3893 84.4222 88.344C84.4467 88.344 84.453 88.344 84.4785 88.3893C84.9149 88.6113 85.511 88.9469 86.1252 89.2804C86.7393 89.6112 87.3623 89.9471 87.9987 90.2108C88.317 90.3422 88.6301 90.4644 89.0603 90.546C89.4905 90.6275 90.202 90.8498 91.1912 90.1112C92.1803 89.374 92.1842 88.6197 92.2348 88.1797C92.2855 87.7401 92.2643 87.4007 92.2347 87.0541C92.1753 86.3603 92.0462 85.6594 91.9145 84.9665C91.7827 84.2737 91.6457 83.6004 91.5642 83.1119C91.5596 83.0666 91.5605 83.067 91.5565 83.0488C91.5755 83.0488 91.5782 83.0035 91.5986 83.0035C91.9438 82.6546 92.4404 82.1838 92.9432 81.6953C93.4461 81.2069 93.951 80.709 94.3953 80.1775C94.6175 79.9102 94.8284 79.647 95.0383 79.2582C95.2481 78.8685 95.6734 78.2521 95.2866 77.0717C94.8998 75.8913 94.1936 75.6554 93.7957 75.4709C93.3979 75.2852 93.0746 75.2035 92.7396 75.1219C92.0697 74.9633 91.3717 74.8728 90.6802 74.7867C89.9887 74.7006 89.3118 74.6236 88.8278 74.5511C88.7993 74.547 88.7934 74.5511 88.766 74.5511C88.7537 74.5058 88.7492 74.5059 88.7365 74.4969C88.5135 74.0573 88.2265 73.4318 87.9231 72.7965C87.6197 72.1613 87.3078 71.5214 86.9459 70.9292C86.765 70.6346 86.5822 70.3509 86.2817 70.0287C85.9813 69.707 85.5336 69.1032 84.3055 69.1105L84.3056 69.1094ZM84.3464 75.7757C84.4745 76.0431 84.602 76.3226 84.7295 76.575C84.8727 76.8559 85.0118 77.1201 85.1788 77.3897C85.3459 77.6571 85.4193 77.9238 86.0529 78.3837C86.6864 78.8436 86.9553 78.8278 87.2609 78.9026C87.5664 78.9751 87.8594 79.0248 88.1702 79.0702C88.4466 79.1155 88.7462 79.1473 89.0389 79.1836C88.8255 79.392 88.6044 79.6002 88.4071 79.7986C88.1854 80.0252 87.9794 80.2426 87.778 80.4851C87.5766 80.7298 87.3532 80.8793 87.1169 81.6306C86.8806 82.3832 86.9781 82.6392 87.0033 82.9559C87.0282 83.2731 87.0717 83.5688 87.1241 83.8824C87.1707 84.1633 87.2334 84.4616 87.2897 84.7552C87.0295 84.6148 86.7654 84.4651 86.5157 84.3382C86.2355 84.1932 85.9692 84.0616 85.6777 83.9438C85.3862 83.826 85.1749 83.6583 84.3954 83.6628C83.6155 83.6673 83.4057 83.8398 83.1156 83.9576C82.8255 84.08 82.5595 84.2159 82.281 84.3609C82.0336 84.4923 81.7722 84.6418 81.5146 84.7868C81.5672 84.4922 81.6253 84.1942 81.6684 83.915C81.7169 83.6024 81.7558 83.303 81.777 82.9858C81.7983 82.6686 81.8929 82.4139 81.6473 81.6649C81.4018 80.9154 81.1763 80.7659 80.9719 80.5243C80.7676 80.2842 80.5581 80.0703 80.3337 79.8479C80.1341 79.6485 79.9119 79.4441 79.6961 79.2389C79.9888 79.1936 80.2885 79.1619 80.5647 79.1166C80.8749 79.0668 81.1648 79.0128 81.4694 78.9358C81.7741 78.8587 82.0428 78.8678 82.6707 78.402H82.673C83.3009 77.9344 83.3702 77.6711 83.5339 77.3997C83.6977 77.1278 83.8324 76.86 83.9721 76.575C84.0965 76.3212 84.2217 76.0435 84.3464 75.7729L84.3464 75.7757Z" fill="#4BB165"/>
<path fill-rule="evenodd" clip-rule="evenodd" d="M82.094 99.9504V111.367H86.6252V99.9504H82.094Z" fill="#4BB165"/>
<path d="M77.5835 54.9171C76.5856 55.189 76.353 55.6054 76.0905 55.9094C75.828 56.213 75.6328 56.5051 75.4366 56.816C75.0443 57.4377 74.6725 58.1355 74.3105 58.8183C73.9485 59.5007 73.6075 60.1705 73.3368 60.6381C73.3155 60.6834 73.3123 60.6832 73.2919 60.7194C73.2493 60.7208 73.2382 60.7195 73.1926 60.72C72.6523 60.72 71.9068 60.7199 71.134 60.6746C70.3613 60.6746 69.5659 60.6293 68.8319 60.6746C68.4649 60.6746 68.1159 60.7287 67.7222 60.8057C67.3285 60.8873 66.8471 60.874 66.1198 61.6094C65.3928 62.3448 65.4096 62.826 65.3345 63.2207C65.2594 63.6149 65.2379 63.9649 65.2234 64.3319C65.1944 65.0664 65.2175 65.8525 65.2456 66.6247C65.2737 67.3972 65.3033 68.152 65.3025 68.6917C65.3025 68.737 65.3036 68.7416 65.303 68.7824C65.2713 68.7824 65.265 68.8278 65.2311 68.8278C64.7671 69.1042 64.1009 69.4613 63.4222 69.8306C62.7435 70.2022 62.0505 70.5803 61.4335 70.9795C61.125 71.1788 60.8357 71.3782 60.5345 71.6438C60.2333 71.9111 59.812 72.1384 59.5499 73.1389C59.2878 74.1398 59.5454 74.5468 59.6774 74.9261C59.8097 75.3067 59.9636 75.6279 60.1347 75.9532C60.4768 76.6035 60.8911 77.2687 61.3015 77.9235C61.7119 78.5782 62.1166 79.2182 62.3858 79.6863C62.4062 79.7316 62.4035 79.7359 62.4225 79.7676C62.4057 79.8129 62.4053 79.8134 62.3867 79.8406C62.1228 80.3119 61.7254 80.9563 61.3225 81.6156C60.9196 82.2754 60.5129 82.9449 60.1782 83.5997C60.0108 83.926 59.8606 84.2507 59.7327 84.6313C59.6047 85.0119 59.3523 85.4222 59.6255 86.4196C59.8989 87.4173 60.3227 87.6412 60.627 87.9031C60.9313 88.1659 61.2227 88.3617 61.5335 88.5574C62.155 88.9516 62.8522 89.3211 63.5351 89.6836C64.2179 90.0461 64.8882 90.3954 65.3553 90.666C65.3897 90.666 65.3956 90.7113 65.4278 90.7113C65.4287 90.7566 65.4278 90.7612 65.4283 90.802C65.4351 91.3421 65.4143 92.097 65.3948 92.8696C65.3757 93.6422 65.3612 94.4288 65.3988 95.1629C65.4174 95.5299 65.4427 95.8787 65.5225 96.2725C65.6021 96.6667 65.59 97.1477 66.326 97.8755H66.3351C67.0715 98.6023 67.5429 98.585 67.9375 98.6598C68.3321 98.7323 68.6815 98.7645 69.0486 98.7826C69.7829 98.8279 70.5784 98.7794 71.3506 98.7372C72.1228 98.6919 72.8693 98.6781 73.4087 98.6781C73.4542 98.6785 73.4657 98.6766 73.5079 98.6775C73.5288 98.7228 73.5319 98.7231 73.5536 98.7594C73.8295 99.2234 74.1782 99.8889 74.5479 100.568C74.9176 101.247 75.2972 101.93 75.6967 102.547C75.8964 102.855 76.0946 103.145 76.3608 103.447C76.6271 103.746 76.861 104.171 77.8651 104.431C78.8661 104.694 79.2725 104.431 79.6519 104.313C80.0313 104.182 80.3443 104.028 80.6695 103.856C81.32 103.516 81.9941 103.09 82.649 102.68C83.3039 102.268 83.9354 101.874 84.4033 101.605C84.44 101.605 84.4499 101.559 84.4843 101.559C84.5192 101.559 84.5292 101.605 84.5658 101.605C85.0368 101.867 85.6726 102.257 86.3323 102.66C86.9919 103.063 87.6702 103.478 88.325 103.813C88.6524 103.981 88.9661 104.131 89.3477 104.257C89.7293 104.384 90.1459 104.633 91.1448 104.357C92.1314 104.085 92.3674 103.659 92.6287 103.356C92.8911 103.052 93.0865 102.76 93.2826 102.449C93.6749 101.828 94.0468 101.139 94.4088 100.457C94.7708 99.7741 95.1118 99.1042 95.3825 98.6366C95.4038 98.5913 95.407 98.591 95.4274 98.5547C95.47 98.5533 95.4811 98.5552 95.5267 98.5547C96.0671 98.5547 96.8125 98.5542 97.5853 98.5995C98.3581 98.5995 99.1534 98.6448 99.8874 98.5995C100.254 98.5995 100.603 98.5454 100.997 98.4684C101.391 98.3914 101.872 98.4001 102.6 97.6647C103.327 96.9293 103.31 96.4481 103.385 96.0534C103.46 95.6592 103.481 95.3098 103.496 94.9428C103.525 94.2082 103.502 93.4222 103.474 92.65C103.446 91.877 103.416 91.1226 103.417 90.5824C103.417 90.5371 103.416 90.5325 103.416 90.4917C103.448 90.4917 103.454 90.4464 103.488 90.4464C103.952 90.1699 104.618 89.8123 105.297 89.443C105.976 89.0714 106.669 88.6933 107.286 88.2941C107.594 88.0947 107.884 87.8953 108.185 87.6298C108.486 87.3625 108.907 87.1356 109.169 86.1341C109.431 85.1341 109.174 84.7273 109.042 84.3475C108.91 83.9669 108.756 83.6464 108.585 83.3215C108.243 82.6708 107.828 82.0054 107.418 81.3507C107.007 80.6955 106.603 80.0554 106.334 79.5873C106.315 79.542 106.314 79.542 106.297 79.5148C106.315 79.4695 106.312 79.4692 106.333 79.433C106.596 78.9617 106.994 78.3172 107.397 77.6574C107.8 76.9981 108.206 76.3282 108.541 75.6739C108.708 75.3476 108.859 75.0229 108.987 74.6423C109.115 74.2617 109.367 73.8518 109.094 72.854C108.82 71.8562 108.397 71.6322 108.092 71.3694C107.788 71.1066 107.497 70.9123 107.186 70.7156C106.564 70.3214 105.867 69.952 105.184 69.59C104.501 69.2275 103.831 68.8782 103.364 68.6076C103.33 68.6076 103.324 68.5623 103.292 68.5623C103.291 68.517 103.292 68.5123 103.291 68.4716C103.284 67.9314 103.305 67.1764 103.325 66.4034C103.344 65.6308 103.358 64.8447 103.321 64.1107C103.302 63.7437 103.277 63.3949 103.197 63.0011C103.117 62.6069 103.129 62.1259 102.393 61.3987C101.657 60.6714 101.176 60.688 100.782 60.6132C100.387 60.5362 100.038 60.5091 99.6707 60.491C98.9365 60.4457 98.1503 60.4947 97.3778 60.5363C96.6053 60.5817 95.8511 60.5955 95.3107 60.5955C95.2651 60.5951 95.2538 60.596 95.2114 60.5955C95.1906 60.5502 95.1874 60.5505 95.1658 60.5142C94.8899 60.0502 94.5413 59.3843 94.1715 58.7055C93.8018 58.0262 93.4221 57.3336 93.0227 56.7164C92.8229 56.4083 92.6248 56.1189 92.3585 55.8176C92.0923 55.514 91.8583 55.1024 90.8543 54.8419C89.8533 54.5791 89.4469 54.8419 89.0674 54.9597C88.688 55.0911 88.3751 55.2455 88.0499 55.4177C87.3994 55.762 86.7253 56.1737 86.0704 56.5842C85.4155 56.9966 84.784 57.3988 84.3161 57.6684C84.2794 57.6684 84.2698 57.7137 84.2351 57.7137C84.2002 57.7137 84.1907 57.6684 84.1536 57.6684C83.6826 57.4056 83.0466 57.0159 82.3871 56.6135C81.7277 56.2103 81.0483 55.7947 80.3944 55.4603C80.0674 55.2926 79.7519 55.143 79.3717 55.0161C78.9915 54.8892 78.5806 54.6486 77.5836 54.916L77.5835 54.9171ZM78.9296 59.8483C79.2805 60.0476 79.6118 60.2195 80.0256 60.4733C80.6663 60.863 81.3205 61.2823 81.937 61.6271C82.2453 61.7993 82.5384 61.9535 82.8605 62.0918C83.1826 62.2322 83.442 62.4315 84.2618 62.4269C85.082 62.4224 85.3386 62.2184 85.6591 62.0779C85.9796 61.9329 86.271 61.7786 86.5773 61.6028C87.1898 61.2493 87.8393 60.8261 88.4755 60.4274C88.8863 60.1691 89.2158 59.9926 89.5642 59.7896C89.7674 60.1385 89.9534 60.4546 90.1843 60.8787C90.5434 61.538 90.9176 62.2231 91.2788 62.8307C91.4594 63.1343 91.6348 63.4213 91.8435 63.7036C92.0522 63.9845 92.1746 64.2756 92.8873 64.6821H92.8963C93.6083 65.0853 93.9219 65.0352 94.2708 65.0715C94.6197 65.1168 94.9472 65.1213 95.3003 65.1213C96.0065 65.1217 96.7887 65.0764 97.5388 65.0538C98.0215 65.0538 98.3909 65.0538 98.7936 65.0538C98.7959 65.4571 98.8036 65.8332 98.7918 66.3171C98.7732 67.0679 98.7501 67.841 98.7592 68.5479C98.7637 68.9013 98.7705 69.2362 98.8102 69.5856C98.8497 69.9345 98.8101 70.2479 99.2242 70.9557C99.6384 71.6635 99.9383 71.7915 100.223 71.9972C100.508 72.2011 100.787 72.3735 101.093 72.552C101.705 72.9055 102.404 73.2635 103.067 73.6151C103.494 73.8417 103.813 74.032 104.163 74.2319C103.964 74.5808 103.78 74.9069 103.528 75.3188C103.137 75.9595 102.729 76.623 102.384 77.2392C102.211 77.5474 102.051 77.8403 101.91 78.1624C101.77 78.4841 101.58 78.735 101.584 79.5547C101.589 80.3753 101.782 80.6321 101.926 80.9524C102.07 81.2741 102.234 81.5643 102.41 81.8706C102.762 82.4828 103.178 83.1416 103.576 83.7778C103.834 84.1902 104.02 84.5091 104.224 84.8575C103.876 85.0614 103.559 85.2562 103.135 85.4864C102.475 85.8444 101.78 86.2111 101.173 86.5722C100.869 86.7535 100.592 86.9298 100.309 87.1364C100.027 87.3449 99.7283 87.4674 99.3222 88.1802C98.916 88.8929 98.9593 89.2147 98.9238 89.5636C98.8885 89.9125 98.8853 90.2494 98.8844 90.6023C98.8833 91.3092 98.9152 92.0816 98.9422 92.832C98.9599 93.3159 98.9562 93.6926 98.9585 94.0959C98.5559 94.0982 98.1865 94.0955 97.7036 94.0937C96.9533 94.0937 96.1706 94.0438 95.4644 94.0483C95.1114 94.0483 94.784 94.0486 94.4356 94.1075C94.0871 94.1528 93.7731 94.1075 93.0656 94.5108H93.0566C92.352 94.9231 92.2292 95.2163 92.024 95.5009C91.8187 95.7863 91.6463 96.0744 91.4692 96.3798C91.1151 96.9911 90.7486 97.6821 90.3971 98.3451C90.171 98.771 89.9886 99.091 89.7894 99.4408C89.4388 99.2414 89.1071 99.0694 88.6934 98.8152C88.0529 98.4255 87.3985 98.0072 86.782 97.6619C86.4737 97.4898 86.1806 97.3312 85.8584 97.1885C85.5363 97.048 85.278 96.8576 84.4572 96.8621C83.637 96.8621 83.3803 97.0612 83.0598 97.2062C82.7394 97.3512 82.448 97.5142 82.1417 97.6896C81.5292 98.043 80.8797 98.4667 80.2435 98.865C79.8327 99.1233 79.5032 99.2998 79.1548 99.5028C78.9516 99.1539 78.7656 98.8379 78.5347 98.4142C78.1756 97.7545 77.8014 97.0693 77.4402 96.4617C77.2596 96.1581 77.0843 95.8716 76.8755 95.5888C76.6667 95.3079 76.5451 95.0169 75.8317 94.6109C75.1186 94.2031 74.8073 94.2483 74.4572 94.2121C74.1071 94.1668 73.7723 94.1668 73.4187 94.1623C72.7115 94.1614 71.9305 94.2079 71.1801 94.2215C70.6972 94.2215 70.3281 94.2215 69.9253 94.2215C69.9232 93.8182 69.9153 93.4471 69.9272 92.9659C69.9458 92.2155 69.9689 91.4425 69.9598 90.7356C69.9553 90.3822 69.9485 90.0469 69.9088 89.698C69.8694 89.3491 69.9089 89.0268 69.4947 88.319C69.0805 87.6108 68.7807 87.492 68.4957 87.2863C68.2108 87.0824 67.9317 86.9106 67.6259 86.7321C67.0144 86.3786 66.315 86.0206 65.6517 85.669C65.2246 85.4424 64.9059 85.252 64.5559 85.0517C64.7555 84.7028 64.9382 84.3785 65.1907 83.9648C65.582 83.3245 65.9899 82.6611 66.3353 82.0448C66.5081 81.7367 66.6682 81.4428 66.8086 81.1211C66.9489 80.7994 67.1393 80.5402 67.1346 79.72C67.1301 78.8999 66.9367 78.6525 66.7927 78.3317C66.6487 78.01 66.4852 77.7198 66.309 77.4135C65.9566 76.8009 65.5412 76.1425 65.1426 75.5063C64.8864 75.0985 64.6987 74.7741 64.4954 74.4266C64.8432 74.2227 65.1597 74.0278 65.5842 73.7971C66.2435 73.4391 66.9387 73.073 67.5462 72.7119C67.8499 72.5306 68.1271 72.3537 68.4096 72.1471C68.6923 71.9387 68.9907 71.8072 69.3967 71.094C69.8028 70.3816 69.7597 70.0693 69.7952 69.72C69.8305 69.3711 69.8337 69.0347 69.8346 68.6818C69.8357 67.9749 69.8038 67.2024 69.7768 66.4515C69.7591 65.968 69.7627 65.5915 69.7605 65.1882C70.1632 65.1859 70.5325 65.188 71.0154 65.1898C71.7657 65.1898 72.5484 65.2397 73.2545 65.2352C73.6076 65.2307 73.9349 65.2355 74.2834 65.1766C74.6318 65.1313 74.9549 65.1766 75.6624 64.7733H75.6623C76.367 64.361 76.4896 64.0673 76.6949 63.7832C76.9002 63.4978 77.0725 63.2096 77.2496 62.9037C77.6038 62.2929 77.9703 61.6019 78.3218 60.939C78.5479 60.5131 78.7303 60.1926 78.9295 59.8433L78.9296 59.8483Z" fill="#4BB165"/>
<path fill-rule="evenodd" clip-rule="evenodd" d="M32.2502 32.0701V36.6013H104.75V32.0701H32.2502ZM32.2502 45.6638V50.1951H104.75V45.6638H32.2502ZM32.2502 59.2576V63.7888H59.4377V59.2576H32.2502ZM32.2502 72.8513V77.3826H54.9065V72.8513H32.2502ZM32.2502 95.5076V100.039H59.4377V95.5076H32.2502Z" fill="#2B4255"/>
</svg>
