<svg width="145" height="145" viewBox="0 0 145 145" fill="none" xmlns="http://www.w3.org/2000/svg">
<path d="M24.9221 27.1848C18.6854 27.1848 13.594 32.2766 13.594 38.5129V124.607C13.5897 124.907 13.6452 125.205 13.7571 125.483C13.8691 125.762 14.0353 126.016 14.2461 126.23C14.4569 126.443 14.7081 126.613 14.9851 126.729C15.2621 126.845 15.5593 126.904 15.8596 126.904C16.1599 126.904 16.4571 126.845 16.7341 126.729C17.0111 126.613 17.2623 126.443 17.4731 126.23C17.6839 126.016 17.8501 125.762 17.9621 125.483C18.074 125.205 18.1295 124.907 18.1252 124.607V38.5129C18.1252 34.7085 21.1173 31.716 24.9221 31.716H33.9846H115.096C115.396 31.7203 115.694 31.6648 115.973 31.5529C116.251 31.4409 116.505 31.2747 116.719 31.0639C116.932 30.8531 117.102 30.6019 117.218 30.3249C117.334 30.0479 117.394 29.7507 117.394 29.4504C117.394 29.1502 117.334 28.8529 117.218 28.5759C117.102 28.2989 116.932 28.0477 116.719 27.8369C116.505 27.6261 116.251 27.4599 115.973 27.348C115.694 27.236 115.396 27.1806 115.096 27.1848H33.9846H24.9221Z" fill="#2B4255"/>
<path fill-rule="evenodd" clip-rule="evenodd" d="M113.282 9.05957V99.6846H120.079C123.883 99.6846 126.876 102.677 126.876 106.481C126.876 110.286 123.883 113.278 120.079 113.278H111.016H26.1348H24.9224C18.6857 113.278 13.5942 118.37 13.5942 124.606C13.5942 130.843 18.6857 135.935 24.9224 135.935H31.7192V117.81H111.016H120.079C126.315 117.81 131.407 112.718 131.407 106.481V29.4502V20.3877C131.407 14.1513 126.315 9.05957 120.079 9.05957H113.282ZM117.813 13.5908H120.079C123.883 13.5908 126.876 16.5833 126.876 20.3877V29.4502V97.9765C124.942 96.4422 122.727 95.1533 120.079 95.1533H117.813V13.5908ZM24.9224 117.81H26.1348H27.188V131.403H24.9224C21.1175 131.403 18.1255 128.411 18.1255 124.606C18.1255 120.802 21.1175 117.81 24.9224 117.81Z" fill="#2B4255"/>
<path fill-rule="evenodd" clip-rule="evenodd" d="M56.6409 58.9033C56.04 58.9034 55.4638 59.1422 55.0389 59.5671C54.614 59.992 54.3753 60.5681 54.3752 61.1689V88.3564C54.3753 88.9573 54.614 89.5334 55.0389 89.9583C55.4638 90.3832 56.04 90.622 56.6409 90.6221H92.8909C93.4917 90.622 94.068 90.3832 94.4928 89.9583C94.9177 89.5334 95.1564 88.9573 95.1565 88.3564V61.1689C95.1564 60.5681 94.9177 59.992 94.4928 59.5671C94.068 59.1422 93.4917 58.9034 92.8909 58.9033H56.6409ZM58.9065 63.4346H90.6252V86.0908H58.9065V63.4346Z" fill="#4BB165"/>
<path d="M74.7305 36.2473C74.1419 36.2567 73.5801 36.4947 73.164 36.9111L50.5078 59.5673C50.1911 59.8842 49.9755 60.2879 49.8882 60.7273C49.8009 61.1667 49.8458 61.6221 50.0172 62.036C50.1886 62.4499 50.4789 62.8037 50.8513 63.0526C51.2238 63.3016 51.6616 63.4346 52.1096 63.4348H97.4221C97.8701 63.4346 98.308 63.3016 98.6804 63.0526C99.0529 62.8037 99.3431 62.4499 99.5146 62.036C99.686 61.6221 99.7309 61.1667 99.6436 60.7273C99.5562 60.2879 99.3406 59.8842 99.024 59.5673L76.3677 36.9111C76.1532 36.6964 75.8977 36.5268 75.6165 36.4127C75.3352 36.2987 75.0339 36.2427 74.7305 36.2473ZM74.7658 41.7167L91.9527 58.9036H57.5789L74.7658 41.7167Z" fill="#4BB165"/>
<path d="M92.8555 45.3094C92.5579 45.314 92.2642 45.3771 91.9911 45.4952C91.718 45.6134 91.4709 45.7843 91.2638 45.998C91.0567 46.2117 90.8937 46.4637 90.7842 46.7403C90.6746 47.017 90.6206 47.3129 90.6252 47.6104V56.7879C90.621 57.0882 90.6765 57.386 90.7884 57.6646C90.9004 57.9432 91.0666 58.197 91.2774 58.4108C91.4882 58.6246 91.7394 58.7944 92.0164 58.9103C92.2934 59.0262 92.5906 59.0856 92.8909 59.0856C93.1911 59.0856 93.4884 59.0262 93.7654 58.9103C94.0424 58.7944 94.2935 58.6246 94.5044 58.4108C94.7152 58.197 94.8814 57.9432 94.9933 57.6646C95.1053 57.386 95.1607 57.0882 95.1565 56.7879V47.6104C95.1612 47.3069 95.105 47.0056 94.991 46.7243C94.877 46.443 94.7077 46.1872 94.4931 45.9726C94.2785 45.7579 94.0229 45.5887 93.7416 45.4747C93.4603 45.3608 93.1589 45.3046 92.8555 45.3094ZM70.2346 72.4969C69.6338 72.4969 69.0575 72.7357 68.6326 73.1606C68.2078 73.5855 67.9691 74.1616 67.969 74.7625V88.3562C67.9691 88.9571 68.2078 89.5332 68.6326 89.9581C69.0575 90.383 69.6338 90.6218 70.2346 90.6219H79.2971C79.898 90.6218 80.4742 90.383 80.8991 89.9581C81.324 89.5332 81.5627 88.9571 81.5627 88.3562V74.7625C81.5627 74.1616 81.324 73.5855 80.8991 73.1606C80.4742 72.7357 79.898 72.4969 79.2971 72.4969H70.2346ZM72.5002 77.0281H77.0315V86.0906H72.5002V77.0281Z" fill="#4BB165"/>
<path fill-rule="evenodd" clip-rule="evenodd" d="M54.3752 95.1534V99.6846H95.1565V95.1534H54.3752ZM40.7815 36.251V90.626H45.3127V36.251H40.7815ZM31.719 58.9034V67.9659H36.2502V58.9034H31.719ZM70.2346 104.216V108.747H79.2971V104.216H70.2346Z" fill="#2B4255"/>
</svg>
