<svg width="112" height="112" viewBox="0 0 112 112" fill="none" xmlns="http://www.w3.org/2000/svg">
<g clip-path="url(#clip0_23_13)">
<path d="M8.44441 47.367L6.62508 36.9797C6.48072 36.1609 7.03099 35.3788 7.84674 35.2349C8.66249 35.0911 9.44708 35.6379 9.59145 36.4566L11.4108 46.8439C17.1371 79.3197 35.5107 93.0613 66.0198 87.6817L69.001 87.1561C69.8197 87.0117 70.6013 87.559 70.7457 88.3777L71.8091 94.4083L99.4014 66.5027L63.9288 49.7171L64.9922 55.7477C65.1365 56.5664 64.5892 57.348 63.7705 57.4924L57.8229 58.5411C42.2228 61.2918 29.5625 59.7957 20.1945 54.0917C19.4818 53.6576 19.2596 52.7272 19.6918 52.0209C20.1229 51.3087 21.0527 51.0836 21.7625 51.5182C30.4889 56.8277 42.4443 58.1942 57.3028 55.5742L61.7643 54.7875L60.4566 47.3716C60.3588 46.8169 60.5779 46.2553 61.0283 45.9128C61.4762 45.5738 62.0763 45.5078 62.5867 45.7481L102.614 64.6883C103.499 65.1073 103.729 66.4155 103.041 67.1088L71.9053 98.5969C71.508 98.9973 70.922 99.1435 70.3846 98.9752C69.8442 98.8074 69.4463 98.3546 69.3485 97.7999L68.0409 90.384L66.5429 90.6481C34.0641 96.375 14.5181 81.8125 8.44441 47.367Z" fill="#4BB165"/>
<path d="M17.878 48.7592C17.7342 47.9434 16.9491 47.3937 16.1333 47.5375C15.3176 47.6813 14.7678 48.4665 14.9117 49.2822C15.0555 50.098 15.8406 50.6477 16.6564 50.5039C17.4721 50.36 18.0219 49.5749 17.878 48.7592ZM6.88671 38.4628L3.74841 20.6646C3.60405 19.8459 4.15135 19.0643 4.97007 18.9199C5.78879 18.7756 6.57042 19.3229 6.71478 20.1416L9.85308 37.9398C9.99744 38.7585 9.45014 39.5401 8.63142 39.6845C7.81271 39.8289 7.03108 39.2816 6.88671 38.4628Z" fill="#4BB165"/>
</g>
<defs>
<clipPath id="clip0_23_13">
<rect width="96.3881" height="96.3881" fill="white" transform="translate(94.9241) rotate(80)"/>
</clipPath>
</defs>
</svg>
