<svg width="165" height="162" viewBox="0 0 165 162" fill="none" xmlns="http://www.w3.org/2000/svg">
<path d="M45.7799 63.83C45.186 63.7388 44.5801 63.8873 44.0956 64.2427C43.6112 64.5981 43.2877 65.1313 43.1964 65.7252L42.231 72.0058C39.7359 72.321 37.295 72.9077 34.9314 73.7671L31.1929 68.6707C30.8375 68.1863 30.3043 67.8625 29.7105 67.7713C29.1167 67.68 28.5109 67.8287 28.0264 68.184L16.7424 76.4692C16.2581 76.8247 15.9347 77.358 15.8435 77.9517C15.7522 78.5455 15.9005 79.1513 16.2557 79.6358L20.0016 84.7422C18.4677 86.7336 17.1613 88.8732 16.106 91.1545L9.84283 90.1918C9.24893 90.1006 8.6431 90.2491 8.15862 90.6045C7.67413 90.9599 7.35066 91.4931 7.25932 92.087L5.13104 105.934C5.03982 106.528 5.18825 107.134 5.54365 107.618C5.89904 108.103 6.43231 108.426 7.02619 108.518L13.3068 109.483C13.6215 111.975 14.2031 114.411 15.0607 116.772L9.97303 120.512C9.48873 120.868 9.1654 121.401 9.07414 121.995C8.98287 122.589 9.13113 123.194 9.48634 123.679L17.7615 134.97C18.1169 135.455 18.6501 135.778 19.2439 135.87C19.8377 135.961 20.4435 135.812 20.928 135.457L26.0432 131.712C28.034 133.245 30.1765 134.544 32.4568 135.599L31.4942 141.862C31.403 142.456 31.5514 143.062 31.9068 143.546C32.2622 144.031 32.7955 144.355 33.3893 144.446L47.2277 146.573C47.8216 146.664 48.4274 146.516 48.9119 146.16C49.3964 145.805 49.7199 145.272 49.8112 144.678L50.7752 138.406C53.2703 138.091 55.7112 137.504 58.0748 136.645L61.8133 141.741C62.1687 142.225 62.7019 142.549 63.2957 142.64C63.8895 142.732 64.4953 142.583 64.9798 142.228L76.2638 133.942C76.7481 133.587 77.0715 133.054 77.1627 132.46C77.254 131.866 77.1057 131.26 76.7505 130.776L73.0047 125.669C74.5385 123.678 75.8449 121.538 76.9003 119.257L83.1634 120.22C83.7573 120.311 84.3631 120.162 84.8476 119.807C85.3321 119.452 85.6556 118.918 85.7469 118.325L87.8752 104.478C87.9664 103.884 87.818 103.278 87.4626 102.793C87.1072 102.309 86.5739 101.985 85.98 101.894L79.6994 100.929C79.3847 98.4368 78.8032 96 77.9456 93.6392L83.0332 89.8993C83.5175 89.5439 83.8408 89.0106 83.9321 88.4168C84.0233 87.8231 83.8751 87.2173 83.5199 86.7328L75.2448 75.4414C74.8893 74.957 74.3561 74.6332 73.7623 74.542C73.1685 74.4507 72.5627 74.5994 72.0782 74.9547L66.963 78.6992C64.9722 77.1664 62.8298 75.8675 60.5494 74.8124L61.5134 68.5405C61.6046 67.9466 61.4562 67.3409 61.1008 66.8564C60.7454 66.3719 60.2121 66.0483 59.6182 65.957L45.7799 63.83ZM47.3308 68.6529L56.6905 70.0914L55.8462 75.5848C55.7673 76.0926 55.8634 76.6122 56.1186 77.0582C56.3738 77.5042 56.7731 77.85 57.2508 78.0392C60.3087 79.2482 63.1436 80.9638 65.6307 83.1147C66.0188 83.45 66.5092 83.6432 67.0216 83.6637C67.5341 83.6842 68.0383 83.5303 68.4518 83.2271L72.9313 79.9489L78.5265 87.5871L74.0746 90.8611C73.6619 91.1628 73.3635 91.5947 73.2276 92.0875C73.0917 92.5803 73.1264 93.105 73.3261 93.5755C74.6226 96.5979 75.4066 99.8175 75.6321 103.099C75.667 103.611 75.875 104.096 76.2219 104.475C76.5688 104.854 77.034 105.103 77.5413 105.183L83.0522 106.03L81.6123 115.398L76.1189 114.554C75.6112 114.475 75.0916 114.571 74.6456 114.826C74.1996 115.082 73.8536 115.481 73.6644 115.959C72.4553 119.017 70.74 121.851 68.589 124.338C68.2538 124.726 68.0603 125.217 68.04 125.73C68.0198 126.242 68.1741 126.747 68.4776 127.16L71.7572 131.63L64.1264 137.236L60.8543 132.775C60.5509 132.361 60.1162 132.063 59.6212 131.929C59.1263 131.795 58.6004 131.832 58.1296 132.035C55.1069 133.332 51.8888 134.107 48.6076 134.333C48.0937 134.368 47.6071 134.577 47.228 134.925C46.8489 135.274 46.5999 135.741 46.522 136.251L45.6763 141.753L36.3166 140.314L37.1609 134.821C37.2377 134.314 37.1404 133.797 36.8851 133.352C36.6297 132.908 36.2314 132.564 35.755 132.375C32.6971 131.166 29.8622 129.451 27.3751 127.3C26.9882 126.963 26.4986 126.769 25.9865 126.747C25.4743 126.724 24.9699 126.876 24.5554 127.178L20.0746 130.465L14.4794 122.827L18.9312 119.553C19.3439 119.252 19.6424 118.819 19.7783 118.326C19.9142 117.834 19.8794 117.309 19.6797 116.839C18.3832 113.816 17.5993 110.597 17.3738 107.315C17.3388 106.803 17.1308 106.318 16.7839 105.939C16.4371 105.561 15.9719 105.311 15.4646 105.231L9.95373 104.384L11.3936 95.0158L16.887 95.8601C17.3948 95.939 17.9142 95.8432 18.3602 95.5879C18.8062 95.3327 19.1522 94.9332 19.3414 94.4555C20.5504 91.3978 22.2659 88.5632 24.4168 86.0762C24.752 85.6879 24.9456 85.1973 24.9658 84.6848C24.986 84.1723 24.8318 83.6678 24.5282 83.2543L21.2487 78.7836L28.8795 73.1783L32.1515 77.6394C32.4549 78.0529 32.8896 78.351 33.3846 78.4854C33.8795 78.6197 34.4054 78.5821 34.8763 78.3789C37.8989 77.0821 41.117 76.3072 44.3982 76.0817C44.9121 76.0466 45.3987 75.8376 45.7778 75.489C46.1569 75.1403 46.406 74.6729 46.4838 74.1637L47.3308 68.6529L47.3308 68.6529Z" fill="#4BB165"/>
<path d="M49.8743 83.2717C37.7891 81.4142 26.4314 89.7455 24.5741 101.831C22.7167 113.916 31.0482 125.274 43.1332 127.131C55.2181 128.988 66.5758 120.657 68.4334 108.572C70.291 96.4867 61.9594 85.1291 49.8743 83.2717ZM49.1859 87.7503C58.8506 89.2358 65.4403 98.219 63.9548 107.884C62.4692 117.548 53.4861 124.138 43.8215 122.652C34.157 121.167 27.5674 112.184 29.0527 102.519C30.538 92.8546 39.5212 86.2649 49.1859 87.7503ZM84.041 10.1127C83.4471 10.0214 82.8413 10.1697 82.3568 10.5251C81.8723 10.8805 81.5488 11.4139 81.4575 12.0078L80.9116 15.5592C79.6634 15.7525 78.446 16.0486 77.2474 16.4466L75.1301 13.5603C74.7747 13.076 74.2414 12.7525 73.6476 12.6612C73.0538 12.5699 72.4481 12.7184 71.9636 13.0736L64.6571 18.4334C64.1728 18.7888 63.8494 19.3221 63.7582 19.9159C63.6669 20.5096 63.8152 21.1154 64.1704 21.5999L66.2876 24.4862C65.5454 25.5072 64.8941 26.5836 64.3321 27.7135L60.7894 27.169C60.1955 27.0778 59.5897 27.2263 59.1052 27.5817C58.6207 27.9371 58.2972 28.4703 58.2059 29.0641L56.8292 38.0215C56.7379 38.6154 56.8864 39.2211 57.2418 39.7056C57.5972 40.19 58.1304 40.5136 58.7243 40.605L62.267 41.1495C62.46 42.4 62.7542 43.622 63.153 44.8225L60.2768 46.9323C59.7925 47.2878 59.4692 47.8211 59.3779 48.4148C59.2867 49.0086 59.4349 49.6144 59.7902 50.0989L65.1499 57.4054C65.5053 57.8897 66.0386 58.213 66.6324 58.3042C67.2262 58.3955 67.8319 58.2473 68.3164 57.8921L71.2027 55.7748C72.2257 56.5184 73.296 57.1763 74.4287 57.7391L73.8855 61.2731C73.7943 61.8669 73.9427 62.4727 74.2981 62.9571C74.6535 63.4416 75.1868 63.7652 75.7806 63.8566L84.738 65.2333C85.3319 65.3245 85.9377 65.176 86.4222 64.8206C86.9067 64.4652 87.2301 63.932 87.3215 63.3381L87.866 59.7954C89.1168 59.6026 90.3379 59.3089 91.539 58.9094L93.6488 61.7856C94.0043 62.27 94.5376 62.5932 95.1314 62.6845C95.7252 62.7757 96.3309 62.6275 96.8154 62.2723L104.122 56.9126C104.606 56.5571 104.93 56.0238 105.021 55.4301C105.112 54.8363 104.964 54.2305 104.609 53.746L102.499 50.8699C103.242 49.8467 103.893 48.7668 104.456 47.6338L107.99 48.177C108.583 48.2682 109.189 48.1197 109.674 47.7643C110.158 47.4089 110.482 46.8757 110.573 46.2818L111.95 37.3245C112.041 36.7306 111.893 36.1249 111.537 35.6404C111.182 35.1559 110.649 34.8323 110.055 34.741L106.512 34.1965C106.318 32.9463 106.025 31.724 105.626 30.5235L108.502 28.4136C108.986 28.0582 109.31 27.5249 109.401 26.9311C109.492 26.3373 109.344 25.7315 108.989 25.2471L103.629 17.9406C103.274 17.4562 102.74 17.1327 102.147 17.0415C101.553 16.9502 100.947 17.0986 100.463 17.4539L97.5763 19.5711C96.554 18.8286 95.4806 18.1775 94.349 17.6153L94.8935 14.0729C94.9847 13.479 94.8363 12.873 94.4809 12.3885C94.1255 11.904 93.5922 11.5807 92.9983 11.4894L84.041 10.1127ZM85.592 14.9355L90.0706 15.6239L89.6458 18.388C89.5669 18.8958 89.663 19.4152 89.9182 19.8611C90.1734 20.3071 90.5726 20.6532 91.0504 20.8424C92.9454 21.5921 94.7027 22.6536 96.244 23.9866C96.6321 24.3219 97.1224 24.5157 97.6348 24.5362C98.1473 24.5566 98.6515 24.4025 99.0651 24.0993L101.316 22.4487L103.995 26.1019L101.755 27.7454C101.341 28.0486 101.043 28.4831 100.908 28.9779C100.774 29.4728 100.811 29.9984 101.014 30.4694C101.817 32.3427 102.295 34.3405 102.434 36.3741C102.472 36.8865 102.682 37.371 103.031 37.7483C103.379 38.1256 103.846 38.3731 104.354 38.4504L107.127 38.8765L106.438 43.3552L103.674 42.9304C103.165 42.8518 102.645 42.949 102.198 43.206C101.752 43.463 101.406 43.8646 101.218 44.3443C100.469 46.2389 99.4086 47.9878 98.0756 49.5291C97.7405 49.9174 97.5471 50.4075 97.5269 50.92C97.5067 51.4324 97.6609 51.9364 97.9644 52.3499L99.6151 54.6009L95.962 57.2802L94.3185 55.0398C94.0154 54.6286 93.5821 54.3318 93.0891 54.1978C92.5961 54.0638 92.0722 54.1006 91.6025 54.3017C89.7293 55.1054 87.7305 55.5911 85.697 55.7311C85.1852 55.766 84.7003 55.9736 84.3217 56.3199C83.9432 56.6662 83.6934 57.1308 83.6132 57.6375L83.187 60.4104L78.7083 59.7221L79.1332 56.9579C79.2098 56.4514 79.1125 55.9337 78.8572 55.4896C78.6018 55.0454 78.2035 54.7009 77.7272 54.5123C75.8323 53.7626 74.0749 52.7011 72.5336 51.3681C72.1467 51.0318 71.6572 50.8365 71.1451 50.8144C70.6329 50.7923 70.1284 50.9447 69.7139 51.2464L67.4634 52.8972L64.7836 49.244L67.024 47.6005C67.4354 47.2976 67.7324 46.8643 67.8667 46.3713C68.001 45.8783 67.9647 45.3546 67.7637 44.8848C66.9603 43.0114 66.4829 41.0138 66.3431 38.9806C66.3081 38.4667 66.0991 37.9799 65.7505 37.6007C65.4019 37.2215 64.9344 36.9724 64.4253 36.8945L61.6523 36.4683L62.3407 31.9896L65.1049 32.4145C65.6126 32.4934 66.132 32.3974 66.578 32.1423C67.0239 31.8871 67.3699 31.4881 67.5592 31.0104C68.3085 29.1153 69.3691 27.3664 70.7021 25.825C71.0396 25.4363 71.2346 24.9442 71.2551 24.4298C71.2756 23.9154 71.1203 23.4093 70.8148 22.995L69.1638 20.745L72.8171 18.0652L74.4606 20.3053C74.7624 20.7178 75.1949 21.0161 75.6877 21.1517C76.1805 21.2874 76.7048 21.2523 77.1752 21.0524C79.0483 20.2492 81.0473 19.7629 83.0806 19.6234C83.594 19.5883 84.0801 19.3796 84.4591 19.0316C84.838 18.6836 85.0872 18.2172 85.1657 17.7087L85.592 14.9355Z" fill="#4BB165"/>
<path d="M86.6913 22.6973C78.4445 21.4298 70.6729 27.1233 69.4053 35.3698C68.1379 43.6168 73.8397 51.3896 82.0865 52.6571C90.3334 53.9246 98.1062 48.2229 99.3738 39.9759C100.641 31.7293 94.9381 23.9649 86.6913 22.6973ZM86.0029 27.176C91.8293 28.0715 95.7906 33.4613 94.8952 39.2875C93.9996 45.1143 88.6013 49.074 82.7749 48.1785C76.9485 47.283 72.9885 41.8849 73.884 36.0582C74.7795 30.2319 80.1765 26.2805 86.0029 27.176Z" fill="#4BB165"/>
<path d="M121.13 61.6577C120.537 61.5665 119.931 61.715 119.446 62.0704C118.962 62.4258 118.638 62.959 118.547 63.5529L117.861 68.014C116.197 68.2515 114.569 68.6396 112.98 69.1889L110.33 65.576C109.974 65.0917 109.441 64.7684 108.847 64.6772C108.253 64.5859 107.648 64.7341 107.163 65.0893L98.5258 71.4175C98.0413 71.7729 97.7179 72.3061 97.6267 72.9C97.5354 73.4938 97.6838 74.0995 98.0391 74.584L100.704 78.2171C99.7008 79.5638 98.8323 80.9876 98.1028 82.5002L93.6504 81.8159C93.0565 81.7247 92.4507 81.8732 91.9662 82.2286C91.4817 82.584 91.1582 83.1171 91.0669 83.711L89.4387 94.3041C89.3475 94.898 89.496 95.5037 89.8514 95.9882C90.2067 96.4727 90.74 96.7963 91.3339 96.8876L95.7863 97.5719C96.0233 99.234 96.4145 100.858 96.9625 102.445L93.3483 105.104C92.8638 105.459 92.5404 105.992 92.4492 106.586C92.3579 107.18 92.5062 107.786 92.8616 108.27L99.1998 116.9C99.5553 117.384 100.089 117.708 100.682 117.799C101.276 117.89 101.882 117.742 102.366 117.387L105.989 114.729C107.337 115.733 108.767 116.602 110.281 117.332L109.598 121.775C109.507 122.369 109.655 122.975 110.011 123.46C110.366 123.944 110.9 124.268 111.493 124.359L122.078 125.986C122.672 126.077 123.277 125.928 123.762 125.573C124.246 125.218 124.57 124.684 124.661 124.091L125.346 119.638C127.01 119.401 128.638 119.013 130.227 118.463L132.877 122.076C133.233 122.561 133.766 122.884 134.36 122.975C134.954 123.066 135.559 122.918 136.044 122.563L144.681 116.235C145.166 115.879 145.489 115.346 145.58 114.752C145.671 114.158 145.523 113.553 145.168 113.068L142.503 109.435C143.505 108.09 144.375 106.663 145.104 105.152L149.556 105.836C150.15 105.928 150.756 105.779 151.241 105.424C151.725 105.068 152.049 104.535 152.14 103.941L153.768 93.3481C153.859 92.7542 153.711 92.1485 153.356 91.664C153 91.1795 152.467 90.8559 151.873 90.7646L147.421 90.0803C147.184 88.4182 146.792 86.7946 146.244 85.2076L149.859 82.5486C150.343 82.1931 150.666 81.66 150.758 81.0661C150.849 80.4722 150.701 79.8666 150.345 79.382L144.007 70.7522C143.652 70.2678 143.118 69.9446 142.524 69.8533C141.931 69.762 141.325 69.9102 140.84 70.2655L137.217 72.9231C135.87 71.9187 134.44 71.0506 132.926 70.3204L133.61 65.868C133.701 65.2741 133.553 64.6684 133.197 64.1839C132.842 63.6994 132.309 63.3759 131.715 63.2845L121.13 61.6577ZM122.681 66.4806L128.787 67.419L128.222 71.0929C128.144 71.6007 128.24 72.1197 128.495 72.5657C128.75 73.0117 129.149 73.3581 129.627 73.5473C131.91 74.4501 134.029 75.733 135.885 77.3386C136.273 77.6739 136.764 77.8677 137.276 77.8882C137.788 77.9086 138.293 77.7543 138.706 77.451L141.693 75.2603L145.352 80.2369L142.373 82.4295C141.961 82.7312 141.662 83.1631 141.526 83.6559C141.39 84.1487 141.425 84.6734 141.625 85.1439C142.593 87.4002 143.175 89.8081 143.343 92.2573C143.38 92.7698 143.59 93.2547 143.939 93.6321C144.288 94.0095 144.754 94.2574 145.262 94.3347L148.945 94.9007L148.005 101.015L144.331 100.45C143.824 100.371 143.304 100.467 142.858 100.723C142.412 100.978 142.066 101.377 141.877 101.855C140.974 104.138 139.701 106.249 138.096 108.105C137.76 108.492 137.565 108.982 137.543 109.494C137.521 110.007 137.674 110.511 137.976 110.926L140.174 113.923L135.19 117.571L133.006 114.594C132.703 114.181 132.268 113.882 131.773 113.748C131.278 113.613 130.753 113.651 130.282 113.854C128.025 114.822 125.626 115.406 123.177 115.574C122.664 115.609 122.179 115.817 121.8 116.164C121.421 116.511 121.172 116.976 121.092 117.483L120.526 121.166L114.421 120.227L114.985 116.553C115.062 116.047 114.965 115.529 114.709 115.085C114.454 114.641 114.056 114.296 113.579 114.108C111.297 113.205 109.178 111.922 107.321 110.316C106.933 109.981 106.443 109.787 105.93 109.767C105.418 109.746 104.914 109.9 104.5 110.203L101.513 112.395L97.8546 107.418L100.833 105.225C101.246 104.924 101.544 104.491 101.68 103.999C101.816 103.506 101.781 102.982 101.582 102.511C100.614 100.255 100.032 97.8469 99.8633 95.3976C99.8263 94.8851 99.6162 94.4002 99.2675 94.0228C98.9187 93.6454 98.4521 93.3975 97.9441 93.3202L94.2614 92.7542L95.2011 86.6404L98.875 87.205C99.3828 87.2839 99.9023 87.1875 100.348 86.9323C100.794 86.677 101.14 86.2776 101.329 85.7999C102.232 83.5171 103.505 81.4062 105.111 79.5497C105.447 79.1625 105.642 78.6729 105.664 78.1606C105.685 77.6483 105.533 77.1435 105.231 76.7292L103.032 73.7324L108.016 70.0841L110.2 73.0607C110.503 73.4741 110.938 73.7723 111.433 73.9066C111.928 74.041 112.454 74.0039 112.925 73.8007C115.181 72.8327 117.581 72.2488 120.03 72.0806C120.542 72.0457 121.028 71.8377 121.406 71.4908C121.785 71.1438 122.035 70.6788 122.114 70.1714L122.682 66.48L122.681 66.4806Z" fill="#2B4255"/>
<path d="M124.262 76.5284C114.736 75.0642 105.775 81.6378 104.311 91.1639C102.846 100.69 109.418 109.66 118.945 111.124C128.471 112.588 137.434 106.006 138.898 96.4799C140.362 86.9538 133.788 77.9925 124.262 76.5284ZM123.574 81.007C130.68 82.0992 135.511 88.6857 134.419 95.7916C133.327 102.897 126.739 107.738 119.633 106.646C112.527 105.553 107.697 98.9581 108.789 91.8523C109.881 84.7464 116.468 79.9149 123.574 81.007Z" fill="#2B4255"/>
</svg>
