<svg width="90" height="90" viewBox="0 0 90 90" fill="none" xmlns="http://www.w3.org/2000/svg">
<path d="M65.6667 1H23.8333C11.2228 1 1 11.2228 1 23.8333V65.6667C1 78.2772 11.2228 88.5 23.8333 88.5H65.6667C78.2772 88.5 88.5 78.2772 88.5 65.6667V23.8333C88.5 11.2228 78.2772 1 65.6667 1Z" stroke="#4BB165" stroke-width="2" stroke-linecap="round" stroke-linejoin="round"/>
<path d="M44.75 67.6668C57.4065 67.6668 67.6667 57.4067 67.6667 44.7502C67.6667 32.0936 57.4065 21.8335 44.75 21.8335C32.0935 21.8335 21.8333 32.0936 21.8333 44.7502C21.8333 57.4067 32.0935 67.6668 44.75 67.6668Z" stroke="#4BB165" stroke-width="2" stroke-linecap="round" stroke-linejoin="round"/>
<path d="M69.75 17.6667C70.9006 17.6667 71.8333 16.7339 71.8333 15.5833C71.8333 14.4327 70.9006 13.5 69.75 13.5C68.5994 13.5 67.6667 14.4327 67.6667 15.5833C67.6667 16.7339 68.5994 17.6667 69.75 17.6667Z" stroke="#4BB165" stroke-width="2" stroke-linecap="round" stroke-linejoin="round"/>
</svg>
