<svg width="90" height="90" viewBox="0 0 90 90" fill="none" xmlns="http://www.w3.org/2000/svg">
<path d="M82.25 1H7.25C5.5924 1 4.00269 1.65848 2.83058 2.83058C1.65848 4.00269 1 5.5924 1 7.25V82.25C1 83.9076 1.65848 85.4973 2.83058 86.6694C4.00269 87.8415 5.5924 88.5 7.25 88.5H42.6667V55.1667H34.3333V42.6667H42.6667V34.3333C42.6667 29.9131 44.4226 25.6738 47.5482 22.5482C50.6738 19.4226 54.9131 17.6667 59.3333 17.6667H71.8333V30.1667H59.3333C58.2283 30.1667 57.1685 30.6057 56.3871 31.3871C55.6057 32.1685 55.1667 33.2283 55.1667 34.3333V42.6667H71.8333L69.75 55.1667H55.1667V88.5H82.25C83.9076 88.5 85.4973 87.8415 86.6694 86.6694C87.8415 85.4973 88.5 83.9076 88.5 82.25V7.25C88.5 5.5924 87.8415 4.00269 86.6694 2.83058C85.4973 1.65848 83.9076 1 82.25 1Z" stroke="#4BB165" stroke-width="2" stroke-linecap="round" stroke-linejoin="round"/>
</svg>
